G04*
G04 #@! TF.GenerationSoftware,Altium Limited,Altium Designer,24.1.2 (44)*
G04*
G04 Layer_Color=8388736*
%FSLAX44Y44*%
%MOMM*%
G71*
G04*
G04 #@! TF.SameCoordinates,531D00EC-4C00-4A94-99CB-661CAA089D98*
G04*
G04*
G04 #@! TF.FilePolarity,Negative*
G04*
G01*
G75*
%ADD14R,0.8581X1.2621*%
%ADD15R,1.4500X0.9500*%
G04:AMPARAMS|DCode=16|XSize=2.6mm|YSize=4.7mm|CornerRadius=1.3mm|HoleSize=0mm|Usage=FLASHONLY|Rotation=270.000|XOffset=0mm|YOffset=0mm|HoleType=Round|Shape=RoundedRectangle|*
%AMROUNDEDRECTD16*
21,1,2.6000,2.1000,0,0,270.0*
21,1,0.0000,4.7000,0,0,270.0*
1,1,2.6000,-1.0500,0.0000*
1,1,2.6000,-1.0500,0.0000*
1,1,2.6000,1.0500,0.0000*
1,1,2.6000,1.0500,0.0000*
%
%ADD16ROUNDEDRECTD16*%
%ADD17R,1.8500X1.8500*%
%ADD18C,1.8500*%
%ADD19C,1.8032*%
G04:AMPARAMS|DCode=20|XSize=1.8032mm|YSize=1.8032mm|CornerRadius=0.5016mm|HoleSize=0mm|Usage=FLASHONLY|Rotation=90.000|XOffset=0mm|YOffset=0mm|HoleType=Round|Shape=RoundedRectangle|*
%AMROUNDEDRECTD20*
21,1,1.8032,0.8000,0,0,90.0*
21,1,0.8000,1.8032,0,0,90.0*
1,1,1.0032,0.4000,0.4000*
1,1,1.0032,0.4000,-0.4000*
1,1,1.0032,-0.4000,-0.4000*
1,1,1.0032,-0.4000,0.4000*
%
%ADD20ROUNDEDRECTD20*%
%ADD21R,1.7532X1.7532*%
%ADD22C,1.7532*%
%ADD23C,6.5532*%
%ADD24C,1.4140*%
%ADD25R,1.4140X1.4140*%
%ADD26C,1.4732*%
D14*
X58570Y273050D02*
D03*
X43030D02*
D03*
X81130D02*
D03*
X96670D02*
D03*
X533400Y76200D02*
D03*
X517860D02*
D03*
X533400Y101600D02*
D03*
X517860D02*
D03*
D15*
X482600Y136300D02*
D03*
Y155800D02*
D03*
Y225650D02*
D03*
Y206150D02*
D03*
Y301850D02*
D03*
Y282350D02*
D03*
Y358550D02*
D03*
Y378050D02*
D03*
D16*
X141650Y461350D02*
D03*
Y313350D02*
D03*
D17*
X36650Y437350D02*
D03*
D18*
Y387350D02*
D03*
Y337350D02*
D03*
X211650Y412350D02*
D03*
Y362350D02*
D03*
D19*
X488950Y50800D02*
D03*
Y76200D02*
D03*
Y101600D02*
D03*
X215900Y57150D02*
D03*
Y82550D02*
D03*
Y133350D02*
D03*
Y184150D02*
D03*
Y158750D02*
D03*
Y107950D02*
D03*
D20*
X488950Y25400D02*
D03*
X215900Y209550D02*
D03*
D21*
X539750Y228600D02*
D03*
Y304800D02*
D03*
Y152400D02*
D03*
Y381000D02*
D03*
D22*
X514350Y228600D02*
D03*
Y304800D02*
D03*
Y152400D02*
D03*
Y381000D02*
D03*
D23*
X527050Y476250D02*
D03*
X57150Y57150D02*
D03*
D24*
X438150Y438150D02*
D03*
Y412750D02*
D03*
Y387350D02*
D03*
Y361950D02*
D03*
Y336550D02*
D03*
Y311150D02*
D03*
Y285750D02*
D03*
Y260350D02*
D03*
Y234950D02*
D03*
Y209550D02*
D03*
Y184150D02*
D03*
Y158750D02*
D03*
Y133350D02*
D03*
Y107950D02*
D03*
Y82550D02*
D03*
X285750D02*
D03*
Y107950D02*
D03*
Y133350D02*
D03*
Y158750D02*
D03*
Y184150D02*
D03*
Y209550D02*
D03*
Y234950D02*
D03*
Y260350D02*
D03*
Y285750D02*
D03*
Y311150D02*
D03*
Y336550D02*
D03*
Y361950D02*
D03*
Y387350D02*
D03*
Y412750D02*
D03*
D25*
Y438150D02*
D03*
D26*
X477520Y184912D02*
D03*
X463198Y282350D02*
D03*
M02*
