M48
;Layer_Color=9474304
;FILE_FORMAT=4:4
METRIC,LZ
;TYPE=PLATED
T01F00S00C0.7112
T02F00S00C0.9140
T03F00S00C1.0500
T04F00S00C1.1000
T05F00S00C1.2000
T07F00S00C3.3020
%
T01
X0047752Y00184912
X00463198Y0028235
T02
X0028575Y0008255
Y0010795
Y0013335
Y0015875
Y0018415
Y0020955
Y0023495
Y0026035
Y0028575
Y0031115
Y0033655
Y0036195
Y0038735
X0043815
Y0036195
Y0033655
Y0031115
Y0028575
Y0026035
Y0023495
Y0020955
Y0018415
Y0015875
Y0013335
Y0010795
Y0008255
Y0041275
Y0043815
X0028575
Y0041275
T03
X0051435Y001524
X0053975
Y002286
X0051435
Y003048
X0053975
Y00381
X0051435
T04
X002159Y0005715
Y0008255
Y0010795
Y0013335
Y0015875
Y0018415
Y0020955
X0048895Y001016
Y000762
Y000508
Y000254
T05
X0003665Y0033735
Y0038735
X0021165Y0036235
Y0041235
X0003665Y0043735
T07
X0005715Y0005715
X0052705Y0047625
M30
