G04*
G04 #@! TF.GenerationSoftware,Altium Limited,Altium Designer,24.1.2 (44)*
G04*
G04 Layer_Physical_Order=2*
G04 Layer_Color=16711680*
%FSLAX44Y44*%
%MOMM*%
G71*
G04*
G04 #@! TF.SameCoordinates,531D00EC-4C00-4A94-99CB-661CAA089D98*
G04*
G04*
G04 #@! TF.FilePolarity,Positive*
G04*
G01*
G75*
G04:AMPARAMS|DCode=16|XSize=2.6mm|YSize=4.7mm|CornerRadius=1.3mm|HoleSize=0mm|Usage=FLASHONLY|Rotation=270.000|XOffset=0mm|YOffset=0mm|HoleType=Round|Shape=RoundedRectangle|*
%AMROUNDEDRECTD16*
21,1,2.6000,2.1000,0,0,270.0*
21,1,0.0000,4.7000,0,0,270.0*
1,1,2.6000,-1.0500,0.0000*
1,1,2.6000,-1.0500,0.0000*
1,1,2.6000,1.0500,0.0000*
1,1,2.6000,1.0500,0.0000*
%
%ADD16ROUNDEDRECTD16*%
%ADD17R,1.8500X1.8500*%
%ADD18C,1.8500*%
%ADD24C,1.4140*%
%ADD25R,1.4140X1.4140*%
%ADD27C,0.5080*%
%ADD28C,1.6000*%
G04:AMPARAMS|DCode=29|XSize=1.6mm|YSize=1.6mm|CornerRadius=0.4mm|HoleSize=0mm|Usage=FLASHONLY|Rotation=90.000|XOffset=0mm|YOffset=0mm|HoleType=Round|Shape=RoundedRectangle|*
%AMROUNDEDRECTD29*
21,1,1.6000,0.8000,0,0,90.0*
21,1,0.8000,1.6000,0,0,90.0*
1,1,0.8000,0.4000,0.4000*
1,1,0.8000,0.4000,-0.4000*
1,1,0.8000,-0.4000,-0.4000*
1,1,0.8000,-0.4000,0.4000*
%
%ADD29ROUNDEDRECTD29*%
%ADD30R,1.5500X1.5500*%
%ADD31C,1.5500*%
%ADD32C,6.3500*%
%ADD33C,1.2700*%
G36*
X584200Y482600D02*
Y50800D01*
X533400Y0D01*
X50800D01*
X0Y50800D01*
Y482600D01*
X50800Y533400D01*
X533400D01*
X584200Y482600D01*
D02*
G37*
%LPC*%
G36*
X152150Y476965D02*
X131150D01*
X128104Y476665D01*
X125175Y475776D01*
X122475Y474333D01*
X120109Y472392D01*
X118167Y470025D01*
X116724Y467326D01*
X115835Y464396D01*
X115535Y461350D01*
X115835Y458303D01*
X116724Y455374D01*
X118167Y452674D01*
X120109Y450308D01*
X122475Y448366D01*
X125175Y446923D01*
X128104Y446035D01*
X131150Y445735D01*
X152150D01*
X155197Y446035D01*
X158126Y446923D01*
X160826Y448366D01*
X163192Y450308D01*
X165134Y452674D01*
X166577Y455374D01*
X167465Y458303D01*
X167765Y461350D01*
X167465Y464396D01*
X166577Y467326D01*
X165134Y470025D01*
X163192Y472392D01*
X160826Y474333D01*
X158126Y475776D01*
X155197Y476665D01*
X152150Y476965D01*
D02*
G37*
G36*
X529749Y510540D02*
X524351D01*
X519020Y509696D01*
X513887Y508028D01*
X509078Y505577D01*
X504712Y502405D01*
X500895Y498588D01*
X497723Y494222D01*
X495272Y489413D01*
X493604Y484280D01*
X492760Y478949D01*
Y473551D01*
X493604Y468220D01*
X495272Y463087D01*
X497723Y458278D01*
X500895Y453912D01*
X504712Y450095D01*
X509078Y446923D01*
X513887Y444472D01*
X519020Y442804D01*
X524351Y441960D01*
X529749D01*
X535080Y442804D01*
X540213Y444472D01*
X545022Y446923D01*
X549388Y450095D01*
X553205Y453912D01*
X556377Y458278D01*
X558828Y463087D01*
X560496Y468220D01*
X561340Y473551D01*
Y478949D01*
X560496Y484280D01*
X558828Y489413D01*
X556377Y494222D01*
X553205Y498588D01*
X549388Y502405D01*
X545022Y505577D01*
X540213Y508028D01*
X535080Y509696D01*
X529749Y510540D01*
D02*
G37*
G36*
X439415Y447760D02*
X436885D01*
X434441Y447105D01*
X432249Y445840D01*
X430460Y444051D01*
X429195Y441859D01*
X428540Y439415D01*
Y436885D01*
X429195Y434441D01*
X430460Y432249D01*
X432249Y430460D01*
X434441Y429195D01*
X436885Y428540D01*
X439415D01*
X441859Y429195D01*
X444051Y430460D01*
X445840Y432249D01*
X447105Y434441D01*
X447760Y436885D01*
Y439415D01*
X447105Y441859D01*
X445840Y444051D01*
X444051Y445840D01*
X441859Y447105D01*
X439415Y447760D01*
D02*
G37*
G36*
X295360D02*
X276140D01*
Y428540D01*
X295360D01*
Y447760D01*
D02*
G37*
G36*
X48440Y449140D02*
X24860D01*
Y425560D01*
X48440D01*
Y449140D01*
D02*
G37*
G36*
X439420Y422359D02*
Y414020D01*
X447759D01*
X447105Y416459D01*
X445840Y418651D01*
X444051Y420440D01*
X441859Y421705D01*
X439420Y422359D01*
D02*
G37*
G36*
X436880D02*
X434441Y421705D01*
X432249Y420440D01*
X430460Y418651D01*
X429195Y416459D01*
X428541Y414020D01*
X436880D01*
Y422359D01*
D02*
G37*
G36*
X447759Y411480D02*
X439420D01*
Y403141D01*
X441859Y403795D01*
X444051Y405060D01*
X445840Y406849D01*
X447105Y409041D01*
X447759Y411480D01*
D02*
G37*
G36*
X436880D02*
X428541D01*
X429195Y409041D01*
X430460Y406849D01*
X432249Y405060D01*
X434441Y403795D01*
X436880Y403141D01*
Y411480D01*
D02*
G37*
G36*
X287015Y422360D02*
X284485D01*
X282041Y421705D01*
X279849Y420440D01*
X278060Y418651D01*
X276795Y416459D01*
X276140Y414015D01*
Y411485D01*
X276795Y409041D01*
X278060Y406849D01*
X279849Y405060D01*
X282041Y403795D01*
X284485Y403140D01*
X287015D01*
X289459Y403795D01*
X291651Y405060D01*
X293440Y406849D01*
X294705Y409041D01*
X295360Y411485D01*
Y414015D01*
X294705Y416459D01*
X293440Y418651D01*
X291651Y420440D01*
X289459Y421705D01*
X287015Y422360D01*
D02*
G37*
G36*
X213202Y424140D02*
X210098D01*
X207099Y423337D01*
X204411Y421785D01*
X202216Y419589D01*
X200664Y416901D01*
X199860Y413902D01*
Y410798D01*
X200476Y408501D01*
X193442Y401467D01*
X192319Y399786D01*
X191924Y397804D01*
Y352044D01*
X192319Y350062D01*
X193442Y348382D01*
X247036Y294788D01*
X248716Y293665D01*
X250698Y293270D01*
X250698Y293270D01*
X278021D01*
X278507Y292097D01*
X278060Y291651D01*
X277644Y290930D01*
X245731D01*
X145648Y391012D01*
X143968Y392135D01*
X141986Y392529D01*
X47274D01*
X46084Y394589D01*
X43889Y396784D01*
X41201Y398336D01*
X38202Y399140D01*
X35098D01*
X32099Y398336D01*
X29411Y396784D01*
X27216Y394589D01*
X25664Y391901D01*
X24860Y388902D01*
Y385798D01*
X25664Y382799D01*
X27216Y380111D01*
X29411Y377916D01*
X32099Y376363D01*
X35098Y375560D01*
X38202D01*
X41201Y376363D01*
X43889Y377916D01*
X46084Y380111D01*
X47274Y382170D01*
X139841D01*
X239923Y282087D01*
X241604Y280965D01*
X243586Y280571D01*
X277644D01*
X278060Y279849D01*
X279849Y278060D01*
X282041Y276795D01*
X284485Y276140D01*
X287015D01*
X289459Y276795D01*
X291493Y277969D01*
X292763Y277582D01*
Y274687D01*
X287819Y269744D01*
X287015Y269960D01*
X284485D01*
X282041Y269305D01*
X279849Y268040D01*
X278060Y266251D01*
X276795Y264059D01*
X276140Y261615D01*
Y259085D01*
X276795Y256641D01*
X278060Y254449D01*
X279849Y252660D01*
X282041Y251395D01*
X284485Y250740D01*
X287015D01*
X289459Y251395D01*
X291651Y252660D01*
X293440Y254449D01*
X294705Y256641D01*
X295360Y259085D01*
Y261615D01*
X295145Y262419D01*
X301604Y268880D01*
X301604Y268880D01*
X302727Y270560D01*
X303121Y272542D01*
X303121Y272542D01*
Y295148D01*
X302727Y297130D01*
X301604Y298811D01*
X298302Y302113D01*
X296622Y303235D01*
X294640Y303629D01*
X293479D01*
X292993Y304803D01*
X293440Y305249D01*
X294705Y307441D01*
X295360Y309885D01*
Y312415D01*
X294705Y314859D01*
X293440Y317051D01*
X291651Y318840D01*
X289459Y320105D01*
X287015Y320760D01*
X284485D01*
X282041Y320105D01*
X279849Y318840D01*
X278060Y317051D01*
X276795Y314859D01*
X276140Y312415D01*
Y309885D01*
X276795Y307441D01*
X278060Y305249D01*
X278507Y304803D01*
X278021Y303629D01*
X252843D01*
X205861Y350611D01*
X206641Y351628D01*
X207099Y351363D01*
X210098Y350560D01*
X210380D01*
Y362350D01*
Y374140D01*
X210098D01*
X207099Y373336D01*
X204411Y371784D01*
X203457Y370830D01*
X202283Y371316D01*
Y395659D01*
X207801Y401176D01*
X210098Y400560D01*
X213202D01*
X216201Y401364D01*
X218889Y402916D01*
X221084Y405111D01*
X222637Y407799D01*
X223440Y410798D01*
Y413902D01*
X222637Y416901D01*
X221084Y419589D01*
X218889Y421785D01*
X216201Y423337D01*
X213202Y424140D01*
D02*
G37*
G36*
X550040Y391290D02*
X541020D01*
Y382270D01*
X550040D01*
Y391290D01*
D02*
G37*
G36*
X538480D02*
X529460D01*
Y382270D01*
X538480D01*
Y391290D01*
D02*
G37*
G36*
X439415Y396960D02*
X436885D01*
X434441Y396305D01*
X432249Y395040D01*
X430460Y393251D01*
X429195Y391059D01*
X428540Y388615D01*
Y386085D01*
X429195Y383641D01*
X430460Y381449D01*
X432249Y379660D01*
X434441Y378395D01*
X436885Y377740D01*
X439415D01*
X441859Y378395D01*
X444051Y379660D01*
X445840Y381449D01*
X447105Y383641D01*
X447760Y386085D01*
Y388615D01*
X447105Y391059D01*
X445840Y393251D01*
X444051Y395040D01*
X441859Y396305D01*
X439415Y396960D01*
D02*
G37*
G36*
X287015D02*
X284485D01*
X282041Y396305D01*
X279849Y395040D01*
X278060Y393251D01*
X276795Y391059D01*
X276140Y388615D01*
Y386085D01*
X276795Y383641D01*
X278060Y381449D01*
X279849Y379660D01*
X282041Y378395D01*
X284485Y377740D01*
X287015D01*
X289459Y378395D01*
X291651Y379660D01*
X293440Y381449D01*
X294705Y383641D01*
X295360Y386085D01*
Y388615D01*
X294705Y391059D01*
X293440Y393251D01*
X291651Y395040D01*
X289459Y396305D01*
X287015Y396960D01*
D02*
G37*
G36*
X550040Y379730D02*
X541020D01*
Y370710D01*
X550040D01*
Y379730D01*
D02*
G37*
G36*
X538480D02*
X529460D01*
Y370710D01*
X538480D01*
Y379730D01*
D02*
G37*
G36*
X515705Y391290D02*
X512995D01*
X510378Y390589D01*
X508032Y389234D01*
X506116Y387318D01*
X504761Y384972D01*
X504060Y382355D01*
Y379645D01*
X504761Y377028D01*
X506116Y374682D01*
X508032Y372766D01*
X510378Y371411D01*
X512995Y370710D01*
X515705D01*
X518322Y371411D01*
X520668Y372766D01*
X522584Y374682D01*
X523939Y377028D01*
X524640Y379645D01*
Y382355D01*
X523939Y384972D01*
X522584Y387318D01*
X520668Y389234D01*
X518322Y390589D01*
X515705Y391290D01*
D02*
G37*
G36*
X213202Y374140D02*
X212920D01*
Y363620D01*
X223440D01*
Y363902D01*
X222637Y366901D01*
X221084Y369589D01*
X218889Y371784D01*
X216201Y373336D01*
X213202Y374140D01*
D02*
G37*
G36*
X287020Y371559D02*
Y363220D01*
X295359D01*
X294705Y365659D01*
X293440Y367851D01*
X291651Y369640D01*
X289459Y370905D01*
X287020Y371559D01*
D02*
G37*
G36*
X284480D02*
X282041Y370905D01*
X279849Y369640D01*
X278060Y367851D01*
X276795Y365659D01*
X276141Y363220D01*
X284480D01*
Y371559D01*
D02*
G37*
G36*
X295359Y360680D02*
X287020D01*
Y352341D01*
X289459Y352995D01*
X291651Y354260D01*
X293440Y356049D01*
X294705Y358241D01*
X295359Y360680D01*
D02*
G37*
G36*
X284480D02*
X276141D01*
X276795Y358241D01*
X278060Y356049D01*
X279849Y354260D01*
X282041Y352995D01*
X284480Y352341D01*
Y360680D01*
D02*
G37*
G36*
X439415Y371560D02*
X436885D01*
X434441Y370905D01*
X432249Y369640D01*
X430460Y367851D01*
X429195Y365659D01*
X428540Y363215D01*
Y360685D01*
X429195Y358241D01*
X430460Y356049D01*
X432249Y354260D01*
X434441Y352995D01*
X436885Y352340D01*
X439415D01*
X441859Y352995D01*
X444051Y354260D01*
X445840Y356049D01*
X447105Y358241D01*
X447760Y360685D01*
Y363215D01*
X447105Y365659D01*
X445840Y367851D01*
X444051Y369640D01*
X441859Y370905D01*
X439415Y371560D01*
D02*
G37*
G36*
X223440Y361080D02*
X212920D01*
Y350560D01*
X213202D01*
X216201Y351363D01*
X218889Y352915D01*
X221084Y355111D01*
X222637Y357799D01*
X223440Y360798D01*
Y361080D01*
D02*
G37*
G36*
X38202Y349140D02*
X37920D01*
Y338620D01*
X48440D01*
Y338902D01*
X47637Y341901D01*
X46084Y344589D01*
X43889Y346784D01*
X41201Y348337D01*
X38202Y349140D01*
D02*
G37*
G36*
X35380D02*
X35098D01*
X32099Y348337D01*
X29411Y346784D01*
X27216Y344589D01*
X25664Y341901D01*
X24860Y338902D01*
Y338620D01*
X35380D01*
Y349140D01*
D02*
G37*
G36*
X439415Y346160D02*
X436885D01*
X434441Y345505D01*
X432249Y344240D01*
X430460Y342451D01*
X429195Y340259D01*
X428540Y337815D01*
Y335285D01*
X429195Y332841D01*
X430460Y330649D01*
X432249Y328860D01*
X434441Y327595D01*
X436885Y326940D01*
X439415D01*
X441859Y327595D01*
X444051Y328860D01*
X445840Y330649D01*
X447105Y332841D01*
X447760Y335285D01*
Y337815D01*
X447105Y340259D01*
X445840Y342451D01*
X444051Y344240D01*
X441859Y345505D01*
X439415Y346160D01*
D02*
G37*
G36*
X287015D02*
X284485D01*
X282041Y345505D01*
X279849Y344240D01*
X278060Y342451D01*
X276795Y340259D01*
X276140Y337815D01*
Y335285D01*
X276795Y332841D01*
X278060Y330649D01*
X279849Y328860D01*
X282041Y327595D01*
X284485Y326940D01*
X287015D01*
X289459Y327595D01*
X291651Y328860D01*
X293440Y330649D01*
X294705Y332841D01*
X295360Y335285D01*
Y337815D01*
X294705Y340259D01*
X293440Y342451D01*
X291651Y344240D01*
X289459Y345505D01*
X287015Y346160D01*
D02*
G37*
G36*
X48440Y336080D02*
X37920D01*
Y325560D01*
X38202D01*
X41201Y326364D01*
X43889Y327916D01*
X46084Y330111D01*
X47637Y332799D01*
X48440Y335798D01*
Y336080D01*
D02*
G37*
G36*
X35380D02*
X24860D01*
Y335798D01*
X25664Y332799D01*
X27216Y330111D01*
X29411Y327916D01*
X32099Y326364D01*
X35098Y325560D01*
X35380D01*
Y336080D01*
D02*
G37*
G36*
X550040Y315090D02*
X541020D01*
Y306070D01*
X550040D01*
Y315090D01*
D02*
G37*
G36*
X538480D02*
X529460D01*
Y306070D01*
X538480D01*
Y315090D01*
D02*
G37*
G36*
X439415Y320760D02*
X436885D01*
X434441Y320105D01*
X432249Y318840D01*
X430460Y317051D01*
X429195Y314859D01*
X428540Y312415D01*
Y309885D01*
X429195Y307441D01*
X430460Y305249D01*
X432249Y303460D01*
X434441Y302195D01*
X436885Y301540D01*
X439415D01*
X441859Y302195D01*
X444051Y303460D01*
X445840Y305249D01*
X447105Y307441D01*
X447760Y309885D01*
Y312415D01*
X447105Y314859D01*
X445840Y317051D01*
X444051Y318840D01*
X441859Y320105D01*
X439415Y320760D01*
D02*
G37*
G36*
X152150Y328965D02*
X131150D01*
X128104Y328665D01*
X125175Y327777D01*
X122475Y326334D01*
X120109Y324392D01*
X118167Y322025D01*
X116724Y319326D01*
X115835Y316397D01*
X115535Y313350D01*
X115835Y310304D01*
X116724Y307374D01*
X118167Y304675D01*
X120109Y302309D01*
X122475Y300367D01*
X125175Y298924D01*
X128104Y298035D01*
X131150Y297735D01*
X152150D01*
X155197Y298035D01*
X158126Y298924D01*
X160826Y300367D01*
X163192Y302309D01*
X165134Y304675D01*
X166577Y307374D01*
X167465Y310304D01*
X167765Y313350D01*
X167465Y316397D01*
X166577Y319326D01*
X165134Y322025D01*
X163192Y324392D01*
X160826Y326334D01*
X158126Y327777D01*
X155197Y328665D01*
X152150Y328965D01*
D02*
G37*
G36*
X550040Y303530D02*
X541020D01*
Y294510D01*
X550040D01*
Y303530D01*
D02*
G37*
G36*
X538480D02*
X529460D01*
Y294510D01*
X538480D01*
Y303530D01*
D02*
G37*
G36*
X515705Y315090D02*
X512995D01*
X510378Y314389D01*
X508032Y313034D01*
X506116Y311118D01*
X504761Y308772D01*
X504060Y306155D01*
Y303445D01*
X504761Y300828D01*
X506116Y298482D01*
X508032Y296566D01*
X510378Y295211D01*
X512995Y294510D01*
X515705D01*
X518322Y295211D01*
X520668Y296566D01*
X522584Y298482D01*
X523939Y300828D01*
X524640Y303445D01*
Y306155D01*
X523939Y308772D01*
X522584Y311118D01*
X520668Y313034D01*
X518322Y314389D01*
X515705Y315090D01*
D02*
G37*
G36*
X439415Y295360D02*
X436885D01*
X434441Y294705D01*
X432249Y293440D01*
X430460Y291651D01*
X429195Y289459D01*
X428540Y287015D01*
Y284485D01*
X429195Y282041D01*
X430460Y279849D01*
X430953Y279356D01*
X430535Y277978D01*
X429818Y277835D01*
X428138Y276712D01*
X422295Y270870D01*
X421173Y269190D01*
X420779Y267208D01*
Y221742D01*
X421173Y219760D01*
X422295Y218079D01*
X428755Y211619D01*
X428540Y210815D01*
Y208285D01*
X429195Y205841D01*
X430460Y203649D01*
X430953Y203156D01*
X430535Y201778D01*
X429818Y201635D01*
X428138Y200513D01*
X422295Y194671D01*
X421173Y192990D01*
X420779Y191008D01*
Y170942D01*
X421173Y168960D01*
X422295Y167279D01*
X428755Y160819D01*
X428540Y160015D01*
Y157485D01*
X429195Y155041D01*
X430460Y152849D01*
X430907Y152403D01*
X430421Y151229D01*
X293479D01*
X292993Y152403D01*
X293440Y152849D01*
X294705Y155041D01*
X295360Y157485D01*
Y160015D01*
X294705Y162459D01*
X293440Y164651D01*
X291651Y166440D01*
X289459Y167705D01*
X287015Y168360D01*
X284485D01*
X282041Y167705D01*
X279849Y166440D01*
X278060Y164651D01*
X276795Y162459D01*
X276140Y160015D01*
Y158431D01*
X274870Y157905D01*
X226496Y206278D01*
Y213550D01*
X226272Y215257D01*
X225613Y216848D01*
X224564Y218214D01*
X223198Y219263D01*
X221607Y219922D01*
X219900Y220146D01*
X211900D01*
X210193Y219922D01*
X208602Y219263D01*
X207236Y218214D01*
X206187Y216848D01*
X205528Y215257D01*
X205304Y213550D01*
Y205550D01*
X205528Y203843D01*
X206187Y202252D01*
X207236Y200886D01*
X208602Y199837D01*
X210193Y199178D01*
X211900Y198954D01*
X219172D01*
X275737Y142388D01*
X277418Y141265D01*
X278135Y141122D01*
X278553Y139744D01*
X278060Y139251D01*
X277644Y138530D01*
X243445D01*
X226054Y155921D01*
X226440Y157362D01*
Y160138D01*
X225722Y162818D01*
X224334Y165222D01*
X222372Y167184D01*
X219968Y168572D01*
X217288Y169290D01*
X214512D01*
X211832Y168572D01*
X209428Y167184D01*
X207466Y165222D01*
X206078Y162818D01*
X205360Y160138D01*
Y157362D01*
X206078Y154682D01*
X207466Y152278D01*
X209428Y150316D01*
X211832Y148928D01*
X214512Y148210D01*
X217288D01*
X218729Y148596D01*
X237638Y129688D01*
X237638Y129688D01*
X239318Y128565D01*
X241300Y128170D01*
X241300Y128170D01*
X277644D01*
X278060Y127449D01*
X279849Y125660D01*
X282041Y124395D01*
X284485Y123740D01*
X287015D01*
X289459Y124395D01*
X291651Y125660D01*
X293440Y127449D01*
X294705Y129641D01*
X295360Y132085D01*
Y134615D01*
X294705Y137059D01*
X293440Y139251D01*
X292993Y139697D01*
X293479Y140871D01*
X430421D01*
X430907Y139697D01*
X430460Y139251D01*
X429195Y137059D01*
X428540Y134615D01*
Y132085D01*
X429195Y129641D01*
X430460Y127449D01*
X432249Y125660D01*
X434441Y124395D01*
X436885Y123740D01*
X439415D01*
X441859Y124395D01*
X444051Y125660D01*
X445840Y127449D01*
X447105Y129641D01*
X447760Y132085D01*
Y134615D01*
X447105Y137059D01*
X445840Y139251D01*
X445393Y139697D01*
X445879Y140871D01*
X455055D01*
X462435Y133491D01*
Y72136D01*
X462829Y70154D01*
X463951Y68474D01*
X478796Y53629D01*
X478410Y52188D01*
Y49412D01*
X479128Y46732D01*
X480516Y44328D01*
X482478Y42366D01*
X484882Y40978D01*
X487562Y40260D01*
X490338D01*
X493018Y40978D01*
X495422Y42366D01*
X497384Y44328D01*
X498772Y46732D01*
X499490Y49412D01*
Y52188D01*
X498772Y54868D01*
X497384Y57272D01*
X495422Y59234D01*
X493018Y60622D01*
X490338Y61340D01*
X487562D01*
X486121Y60954D01*
X472794Y74281D01*
Y135636D01*
X472794Y135636D01*
X472399Y137618D01*
X471277Y139298D01*
X471276Y139298D01*
X460863Y149712D01*
X459182Y150835D01*
X457200Y151229D01*
X445879D01*
X445393Y152403D01*
X445840Y152849D01*
X447105Y155041D01*
X447760Y157485D01*
Y160015D01*
X447105Y162459D01*
X445840Y164651D01*
X444051Y166440D01*
X441859Y167705D01*
X439415Y168360D01*
X436885D01*
X436081Y168144D01*
X431138Y173087D01*
Y175982D01*
X432407Y176369D01*
X434441Y175195D01*
X436885Y174540D01*
X439415D01*
X441859Y175195D01*
X444051Y176460D01*
X445840Y178249D01*
X447105Y180441D01*
X447760Y182885D01*
Y185415D01*
X447105Y187859D01*
X445840Y190051D01*
X445393Y190497D01*
X445879Y191670D01*
X463437D01*
X468713Y186394D01*
X468630Y186082D01*
Y183742D01*
X469236Y181481D01*
X470406Y179453D01*
X472061Y177798D01*
X474089Y176628D01*
X476350Y176022D01*
X478690D01*
X480951Y176628D01*
X482500Y177522D01*
X483770Y176903D01*
Y110780D01*
X482478Y110034D01*
X480516Y108072D01*
X479128Y105668D01*
X478410Y102988D01*
Y100212D01*
X479128Y97532D01*
X480516Y95128D01*
X482478Y93166D01*
X484882Y91778D01*
X487562Y91060D01*
X490338D01*
X493018Y91778D01*
X495422Y93166D01*
X497384Y95128D01*
X498772Y97532D01*
X499490Y100212D01*
Y102988D01*
X498772Y105668D01*
X497384Y108072D01*
X495422Y110034D01*
X494129Y110780D01*
Y209550D01*
X493735Y211532D01*
X492612Y213213D01*
X447545Y258281D01*
X447760Y259085D01*
Y261615D01*
X447105Y264059D01*
X445840Y266251D01*
X445393Y266697D01*
X445879Y267871D01*
X453898D01*
X455880Y268265D01*
X457561Y269387D01*
X461716Y273543D01*
X462028Y273460D01*
X464368D01*
X466629Y274066D01*
X468657Y275236D01*
X470312Y276891D01*
X471482Y278918D01*
X472088Y281180D01*
Y283520D01*
X471482Y285781D01*
X470312Y287808D01*
X468657Y289464D01*
X466629Y290634D01*
X464368Y291240D01*
X462028D01*
X459767Y290634D01*
X457739Y289464D01*
X456084Y287808D01*
X454914Y285781D01*
X454308Y283520D01*
Y281180D01*
X454391Y280868D01*
X451753Y278230D01*
X445879D01*
X445393Y279403D01*
X445840Y279849D01*
X447105Y282041D01*
X447760Y284485D01*
Y287015D01*
X447105Y289459D01*
X445840Y291651D01*
X444051Y293440D01*
X441859Y294705D01*
X439415Y295360D01*
D02*
G37*
G36*
X550040Y238890D02*
X541020D01*
Y229870D01*
X550040D01*
Y238890D01*
D02*
G37*
G36*
X538480D02*
X529460D01*
Y229870D01*
X538480D01*
Y238890D01*
D02*
G37*
G36*
X287015Y244560D02*
X284485D01*
X282041Y243905D01*
X279849Y242640D01*
X278060Y240851D01*
X276795Y238659D01*
X276140Y236215D01*
Y233685D01*
X276795Y231241D01*
X278060Y229049D01*
X279849Y227260D01*
X282041Y225995D01*
X284485Y225340D01*
X287015D01*
X289459Y225995D01*
X291651Y227260D01*
X293440Y229049D01*
X294705Y231241D01*
X295360Y233685D01*
Y236215D01*
X294705Y238659D01*
X293440Y240851D01*
X291651Y242640D01*
X289459Y243905D01*
X287015Y244560D01*
D02*
G37*
G36*
X550040Y227330D02*
X541020D01*
Y218310D01*
X550040D01*
Y227330D01*
D02*
G37*
G36*
X538480D02*
X529460D01*
Y218310D01*
X538480D01*
Y227330D01*
D02*
G37*
G36*
X515705Y238890D02*
X512995D01*
X510378Y238189D01*
X508032Y236834D01*
X506116Y234918D01*
X504761Y232572D01*
X504060Y229955D01*
Y227245D01*
X504761Y224628D01*
X506116Y222282D01*
X508032Y220366D01*
X510378Y219011D01*
X512995Y218310D01*
X515705D01*
X518322Y219011D01*
X520668Y220366D01*
X522584Y222282D01*
X523939Y224628D01*
X524640Y227245D01*
Y229955D01*
X523939Y232572D01*
X522584Y234918D01*
X520668Y236834D01*
X518322Y238189D01*
X515705Y238890D01*
D02*
G37*
G36*
X287015Y219160D02*
X284485D01*
X282041Y218505D01*
X279849Y217240D01*
X278060Y215451D01*
X276795Y213259D01*
X276140Y210815D01*
Y208285D01*
X276795Y205841D01*
X278060Y203649D01*
X279849Y201860D01*
X282041Y200595D01*
X284485Y199940D01*
X287015D01*
X289459Y200595D01*
X291651Y201860D01*
X293440Y203649D01*
X294705Y205841D01*
X295360Y208285D01*
Y210815D01*
X294705Y213259D01*
X293440Y215451D01*
X291651Y217240D01*
X289459Y218505D01*
X287015Y219160D01*
D02*
G37*
G36*
X217288Y194690D02*
X217170D01*
Y185420D01*
X226440D01*
Y185538D01*
X225722Y188218D01*
X224334Y190622D01*
X222372Y192584D01*
X219968Y193972D01*
X217288Y194690D01*
D02*
G37*
G36*
X214630D02*
X214512D01*
X211832Y193972D01*
X209428Y192584D01*
X207466Y190622D01*
X206078Y188218D01*
X205360Y185538D01*
Y185420D01*
X214630D01*
Y194690D01*
D02*
G37*
G36*
X287015Y193760D02*
X284485D01*
X282041Y193105D01*
X279849Y191840D01*
X278060Y190051D01*
X276795Y187859D01*
X276140Y185415D01*
Y182885D01*
X276795Y180441D01*
X278060Y178249D01*
X279849Y176460D01*
X282041Y175195D01*
X284485Y174540D01*
X287015D01*
X289459Y175195D01*
X291651Y176460D01*
X293440Y178249D01*
X294705Y180441D01*
X295360Y182885D01*
Y185415D01*
X294705Y187859D01*
X293440Y190051D01*
X291651Y191840D01*
X289459Y193105D01*
X287015Y193760D01*
D02*
G37*
G36*
X226440Y182880D02*
X217170D01*
Y173610D01*
X217288D01*
X219968Y174328D01*
X222372Y175716D01*
X224334Y177678D01*
X225722Y180082D01*
X226440Y182762D01*
Y182880D01*
D02*
G37*
G36*
X214630D02*
X205360D01*
Y182762D01*
X206078Y180082D01*
X207466Y177678D01*
X209428Y175716D01*
X211832Y174328D01*
X214512Y173610D01*
X214630D01*
Y182880D01*
D02*
G37*
G36*
X550040Y162690D02*
X541020D01*
Y153670D01*
X550040D01*
Y162690D01*
D02*
G37*
G36*
X538480D02*
X529460D01*
Y153670D01*
X538480D01*
Y162690D01*
D02*
G37*
G36*
X550040Y151130D02*
X541020D01*
Y142110D01*
X550040D01*
Y151130D01*
D02*
G37*
G36*
X538480D02*
X529460D01*
Y142110D01*
X538480D01*
Y151130D01*
D02*
G37*
G36*
X515705Y162690D02*
X512995D01*
X510378Y161989D01*
X508032Y160634D01*
X506116Y158718D01*
X504761Y156372D01*
X504060Y153755D01*
Y151045D01*
X504761Y148428D01*
X506116Y146082D01*
X508032Y144166D01*
X510378Y142811D01*
X512995Y142110D01*
X515705D01*
X518322Y142811D01*
X520668Y144166D01*
X522584Y146082D01*
X523939Y148428D01*
X524640Y151045D01*
Y153755D01*
X523939Y156372D01*
X522584Y158718D01*
X520668Y160634D01*
X518322Y161989D01*
X515705Y162690D01*
D02*
G37*
G36*
X217288Y143890D02*
X214512D01*
X211832Y143172D01*
X209428Y141784D01*
X207466Y139822D01*
X206078Y137418D01*
X205360Y134738D01*
Y131962D01*
X206078Y129282D01*
X207466Y126878D01*
X209428Y124916D01*
X211832Y123528D01*
X214512Y122810D01*
X217288D01*
X219968Y123528D01*
X222372Y124916D01*
X224334Y126878D01*
X225722Y129282D01*
X226440Y131962D01*
Y134738D01*
X225722Y137418D01*
X224334Y139822D01*
X222372Y141784D01*
X219968Y143172D01*
X217288Y143890D01*
D02*
G37*
G36*
Y118490D02*
X214512D01*
X211832Y117772D01*
X209428Y116384D01*
X207466Y114422D01*
X206078Y112018D01*
X205360Y109338D01*
Y106562D01*
X206078Y103882D01*
X207466Y101478D01*
X209428Y99516D01*
X211832Y98128D01*
X214512Y97410D01*
X217288D01*
X219968Y98128D01*
X222372Y99516D01*
X224334Y101478D01*
X225080Y102771D01*
X277644D01*
X278060Y102049D01*
X278918Y101192D01*
X278392Y99922D01*
X228092D01*
X228092Y99922D01*
X226110Y99527D01*
X224429Y98405D01*
X224429Y98404D01*
X218729Y92704D01*
X217288Y93090D01*
X214512D01*
X211832Y92372D01*
X209428Y90984D01*
X207466Y89022D01*
X206078Y86618D01*
X205360Y83938D01*
Y81162D01*
X206078Y78482D01*
X207466Y76078D01*
X209428Y74116D01*
X211832Y72728D01*
X214512Y72010D01*
X217288D01*
X219968Y72728D01*
X222372Y74116D01*
X224334Y76078D01*
X225722Y78482D01*
X226440Y81162D01*
Y83938D01*
X226054Y85379D01*
X230237Y89563D01*
X277582D01*
X277969Y88293D01*
X276795Y86259D01*
X276140Y83815D01*
Y81285D01*
X276795Y78841D01*
X278060Y76649D01*
X279849Y74860D01*
X282041Y73595D01*
X284485Y72940D01*
X287015D01*
X289459Y73595D01*
X291651Y74860D01*
X293440Y76649D01*
X294705Y78841D01*
X295360Y81285D01*
Y83815D01*
X294705Y86259D01*
X293531Y88293D01*
X293918Y89563D01*
X423813D01*
X428755Y84620D01*
X428540Y83815D01*
Y81285D01*
X429195Y78841D01*
X430460Y76649D01*
X432249Y74860D01*
X434441Y73595D01*
X436885Y72940D01*
X439415D01*
X441859Y73595D01*
X444051Y74860D01*
X445840Y76649D01*
X447105Y78841D01*
X447760Y81285D01*
Y83815D01*
X447105Y86259D01*
X445840Y88451D01*
X444051Y90240D01*
X441859Y91505D01*
X439415Y92160D01*
X436885D01*
X436081Y91945D01*
X429621Y98405D01*
X427940Y99527D01*
X425958Y99922D01*
X293108D01*
X292582Y101192D01*
X293440Y102049D01*
X294705Y104241D01*
X295360Y106685D01*
Y109215D01*
X294705Y111659D01*
X293440Y113851D01*
X291651Y115640D01*
X289459Y116905D01*
X287015Y117560D01*
X284485D01*
X282041Y116905D01*
X279849Y115640D01*
X278060Y113851D01*
X277644Y113130D01*
X225080D01*
X224334Y114422D01*
X222372Y116384D01*
X219968Y117772D01*
X217288Y118490D01*
D02*
G37*
G36*
X439415Y117560D02*
X436885D01*
X434441Y116905D01*
X432249Y115640D01*
X430460Y113851D01*
X429195Y111659D01*
X428540Y109215D01*
Y106685D01*
X429195Y104241D01*
X430460Y102049D01*
X432249Y100260D01*
X434441Y98995D01*
X436885Y98340D01*
X439415D01*
X441859Y98995D01*
X444051Y100260D01*
X445840Y102049D01*
X447105Y104241D01*
X447760Y106685D01*
Y109215D01*
X447105Y111659D01*
X445840Y113851D01*
X444051Y115640D01*
X441859Y116905D01*
X439415Y117560D01*
D02*
G37*
G36*
X490338Y86740D02*
X487562D01*
X484882Y86022D01*
X482478Y84634D01*
X480516Y82672D01*
X479128Y80268D01*
X478410Y77588D01*
Y74812D01*
X479128Y72132D01*
X480516Y69728D01*
X482478Y67766D01*
X484882Y66378D01*
X487562Y65660D01*
X490338D01*
X493018Y66378D01*
X495422Y67766D01*
X497384Y69728D01*
X498772Y72132D01*
X499490Y74812D01*
Y77588D01*
X498772Y80268D01*
X497384Y82672D01*
X495422Y84634D01*
X493018Y86022D01*
X490338Y86740D01*
D02*
G37*
G36*
X217288Y67690D02*
X214512D01*
X211832Y66972D01*
X209428Y65584D01*
X207466Y63622D01*
X206078Y61218D01*
X205360Y58538D01*
Y55762D01*
X206078Y53082D01*
X207466Y50678D01*
X209428Y48716D01*
X211832Y47328D01*
X214512Y46610D01*
X217288D01*
X219968Y47328D01*
X222372Y48716D01*
X224334Y50678D01*
X225722Y53082D01*
X226440Y55762D01*
Y58538D01*
X225722Y61218D01*
X224334Y63622D01*
X222372Y65584D01*
X219968Y66972D01*
X217288Y67690D01*
D02*
G37*
G36*
X492950Y35996D02*
X490220D01*
Y26670D01*
X499546D01*
Y29400D01*
X499322Y31107D01*
X498663Y32698D01*
X497614Y34064D01*
X496248Y35113D01*
X494657Y35772D01*
X492950Y35996D01*
D02*
G37*
G36*
X487680D02*
X484950D01*
X483243Y35772D01*
X481652Y35113D01*
X480286Y34064D01*
X479237Y32698D01*
X478578Y31107D01*
X478354Y29400D01*
Y26670D01*
X487680D01*
Y35996D01*
D02*
G37*
G36*
X59849Y91440D02*
X54451D01*
X49120Y90596D01*
X43987Y88928D01*
X39178Y86477D01*
X34812Y83305D01*
X30995Y79488D01*
X27823Y75122D01*
X25372Y70313D01*
X23704Y65180D01*
X22860Y59849D01*
Y54451D01*
X23704Y49120D01*
X25372Y43987D01*
X27823Y39178D01*
X30995Y34812D01*
X34812Y30995D01*
X39178Y27823D01*
X43987Y25372D01*
X49120Y23704D01*
X54451Y22860D01*
X59849D01*
X65180Y23704D01*
X70313Y25372D01*
X75122Y27823D01*
X79488Y30995D01*
X83305Y34812D01*
X86477Y39178D01*
X88928Y43987D01*
X90596Y49120D01*
X91440Y54451D01*
Y59849D01*
X90596Y65180D01*
X88928Y70313D01*
X86477Y75122D01*
X83305Y79488D01*
X79488Y83305D01*
X75122Y86477D01*
X70313Y88928D01*
X65180Y90596D01*
X59849Y91440D01*
D02*
G37*
G36*
X499546Y24130D02*
X490220D01*
Y14804D01*
X492950D01*
X494657Y15028D01*
X496248Y15687D01*
X497614Y16736D01*
X498663Y18102D01*
X499322Y19693D01*
X499546Y21400D01*
Y24130D01*
D02*
G37*
G36*
X487680D02*
X478354D01*
Y21400D01*
X478578Y19693D01*
X479237Y18102D01*
X480286Y16736D01*
X481652Y15687D01*
X483243Y15028D01*
X484950Y14804D01*
X487680D01*
Y24130D01*
D02*
G37*
%LPD*%
G36*
X434441Y251395D02*
X436885Y250740D01*
X439415D01*
X440219Y250956D01*
X483770Y207405D01*
Y192921D01*
X482500Y192302D01*
X480951Y193196D01*
X478690Y193802D01*
X476350D01*
X476038Y193719D01*
X469244Y200513D01*
X467564Y201635D01*
X465582Y202029D01*
X445879D01*
X445393Y203203D01*
X445840Y203649D01*
X447105Y205841D01*
X447760Y208285D01*
Y210815D01*
X447105Y213259D01*
X445840Y215451D01*
X444051Y217240D01*
X441859Y218505D01*
X439415Y219160D01*
X436885D01*
X436081Y218944D01*
X431138Y223887D01*
Y226782D01*
X432407Y227169D01*
X434441Y225995D01*
X436885Y225340D01*
X439415D01*
X441859Y225995D01*
X444051Y227260D01*
X445840Y229049D01*
X447105Y231241D01*
X447760Y233685D01*
Y236215D01*
X447105Y238659D01*
X445840Y240851D01*
X444051Y242640D01*
X441859Y243905D01*
X439415Y244560D01*
X436885D01*
X434441Y243905D01*
X432407Y242731D01*
X431138Y243118D01*
Y252182D01*
X432407Y252569D01*
X434441Y251395D01*
D02*
G37*
D16*
X141650Y461350D02*
D03*
Y313350D02*
D03*
D17*
X36650Y437350D02*
D03*
D18*
Y387350D02*
D03*
Y337350D02*
D03*
X211650Y412350D02*
D03*
Y362350D02*
D03*
D24*
X438150Y438150D02*
D03*
Y412750D02*
D03*
Y387350D02*
D03*
Y361950D02*
D03*
Y336550D02*
D03*
Y311150D02*
D03*
Y285750D02*
D03*
Y260350D02*
D03*
Y234950D02*
D03*
Y209550D02*
D03*
Y184150D02*
D03*
Y158750D02*
D03*
Y133350D02*
D03*
Y107950D02*
D03*
Y82550D02*
D03*
X285750D02*
D03*
Y107950D02*
D03*
Y133350D02*
D03*
Y158750D02*
D03*
Y184150D02*
D03*
Y209550D02*
D03*
Y234950D02*
D03*
Y260350D02*
D03*
Y285750D02*
D03*
Y311150D02*
D03*
Y336550D02*
D03*
Y361950D02*
D03*
Y387350D02*
D03*
Y412750D02*
D03*
D25*
Y438150D02*
D03*
D27*
X465582Y196850D02*
X477520Y184912D01*
X431800Y196850D02*
X465582D01*
X425958Y191008D02*
X431800Y196850D01*
X425958Y170942D02*
Y191008D01*
Y170942D02*
X438150Y158750D01*
X215900Y209550D02*
X279400Y146050D01*
X457200D01*
X467614Y135636D01*
Y72136D02*
Y135636D01*
Y72136D02*
X488950Y50800D01*
X36650Y387350D02*
X141986D01*
X243586Y285750D01*
X285750D01*
X215900Y158750D02*
X241300Y133350D01*
X285750D01*
X215900Y107950D02*
X285750D01*
X215900Y82550D02*
X228092Y94742D01*
X425958D01*
X438150Y82550D01*
X425958Y221742D02*
X438150Y209550D01*
X425958Y221742D02*
Y267208D01*
X431800Y273050D01*
X453898D01*
X463198Y282350D01*
X197104Y397804D02*
X211650Y412350D01*
X197104Y352044D02*
Y397804D01*
Y352044D02*
X250698Y298450D01*
X294640D01*
X297942Y295148D01*
Y272542D02*
Y295148D01*
X285750Y260350D02*
X297942Y272542D01*
X488950Y101600D02*
Y209550D01*
X438150Y260350D02*
X488950Y209550D01*
D28*
Y50800D02*
D03*
Y76200D02*
D03*
Y101600D02*
D03*
X215900Y57150D02*
D03*
Y82550D02*
D03*
Y133350D02*
D03*
Y184150D02*
D03*
Y158750D02*
D03*
Y107950D02*
D03*
D29*
X488950Y25400D02*
D03*
X215900Y209550D02*
D03*
D30*
X539750Y228600D02*
D03*
Y304800D02*
D03*
Y152400D02*
D03*
Y381000D02*
D03*
D31*
X514350Y228600D02*
D03*
Y304800D02*
D03*
Y152400D02*
D03*
Y381000D02*
D03*
D32*
X527050Y476250D02*
D03*
X57150Y57150D02*
D03*
D33*
X477520Y184912D02*
D03*
X463198Y282350D02*
D03*
M02*
