G04*
G04 #@! TF.GenerationSoftware,Altium Limited,Altium Designer,24.1.2 (44)*
G04*
G04 Layer_Physical_Order=1*
G04 Layer_Color=255*
%FSLAX44Y44*%
%MOMM*%
G71*
G04*
G04 #@! TF.SameCoordinates,531D00EC-4C00-4A94-99CB-661CAA089D98*
G04*
G04*
G04 #@! TF.FilePolarity,Positive*
G04*
G01*
G75*
%ADD14R,0.8581X1.2621*%
%ADD15R,1.4500X0.9500*%
G04:AMPARAMS|DCode=16|XSize=2.6mm|YSize=4.7mm|CornerRadius=1.3mm|HoleSize=0mm|Usage=FLASHONLY|Rotation=270.000|XOffset=0mm|YOffset=0mm|HoleType=Round|Shape=RoundedRectangle|*
%AMROUNDEDRECTD16*
21,1,2.6000,2.1000,0,0,270.0*
21,1,0.0000,4.7000,0,0,270.0*
1,1,2.6000,-1.0500,0.0000*
1,1,2.6000,-1.0500,0.0000*
1,1,2.6000,1.0500,0.0000*
1,1,2.6000,1.0500,0.0000*
%
%ADD16ROUNDEDRECTD16*%
%ADD17R,1.8500X1.8500*%
%ADD18C,1.8500*%
%ADD24C,1.4140*%
%ADD25R,1.4140X1.4140*%
%ADD27C,0.5080*%
%ADD28C,1.6000*%
G04:AMPARAMS|DCode=29|XSize=1.6mm|YSize=1.6mm|CornerRadius=0.4mm|HoleSize=0mm|Usage=FLASHONLY|Rotation=90.000|XOffset=0mm|YOffset=0mm|HoleType=Round|Shape=RoundedRectangle|*
%AMROUNDEDRECTD29*
21,1,1.6000,0.8000,0,0,90.0*
21,1,0.8000,1.6000,0,0,90.0*
1,1,0.8000,0.4000,0.4000*
1,1,0.8000,0.4000,-0.4000*
1,1,0.8000,-0.4000,-0.4000*
1,1,0.8000,-0.4000,0.4000*
%
%ADD29ROUNDEDRECTD29*%
%ADD30R,1.5500X1.5500*%
%ADD31C,1.5500*%
%ADD32C,6.3500*%
%ADD33C,1.2700*%
D14*
X58570Y273050D02*
D03*
X43030D02*
D03*
X81130D02*
D03*
X96670D02*
D03*
X533400Y76200D02*
D03*
X517860D02*
D03*
X533400Y101600D02*
D03*
X517860D02*
D03*
D15*
X482600Y136300D02*
D03*
Y155800D02*
D03*
Y225650D02*
D03*
Y206150D02*
D03*
Y301850D02*
D03*
Y282350D02*
D03*
Y358550D02*
D03*
Y378050D02*
D03*
D16*
X141650Y461350D02*
D03*
Y313350D02*
D03*
D17*
X36650Y437350D02*
D03*
D18*
Y387350D02*
D03*
Y337350D02*
D03*
X211650Y412350D02*
D03*
Y362350D02*
D03*
D24*
X438150Y438150D02*
D03*
Y412750D02*
D03*
Y387350D02*
D03*
Y361950D02*
D03*
Y336550D02*
D03*
Y311150D02*
D03*
Y285750D02*
D03*
Y260350D02*
D03*
Y234950D02*
D03*
Y209550D02*
D03*
Y184150D02*
D03*
Y158750D02*
D03*
Y133350D02*
D03*
Y107950D02*
D03*
Y82550D02*
D03*
X285750D02*
D03*
Y107950D02*
D03*
Y133350D02*
D03*
Y158750D02*
D03*
Y184150D02*
D03*
Y209550D02*
D03*
Y234950D02*
D03*
Y260350D02*
D03*
Y285750D02*
D03*
Y311150D02*
D03*
Y336550D02*
D03*
Y361950D02*
D03*
Y387350D02*
D03*
Y412750D02*
D03*
D25*
Y438150D02*
D03*
D27*
X96670Y279400D02*
X111760D01*
X480060Y331470D02*
Y358550D01*
X96670Y273050D02*
Y279400D01*
X254000D02*
X285750Y311150D01*
X473670Y136300D02*
X482600D01*
X470270Y139700D02*
X473670Y136300D01*
X470270Y139700D02*
Y177662D01*
X477520Y184912D01*
X91440Y209550D02*
X215900D01*
X81130Y219860D02*
X91440Y209550D01*
X81130Y219860D02*
Y273050D01*
X58570D02*
X81130D01*
X488950Y50800D02*
X523240D01*
X533400Y60960D01*
Y76200D01*
Y101600D01*
X450342Y89408D02*
X488950Y50800D01*
X450342Y89408D02*
Y193548D01*
X447040Y196850D02*
X450342Y193548D01*
X424688Y196850D02*
X447040D01*
X418338Y203200D02*
X424688Y196850D01*
X418338Y203200D02*
Y418338D01*
X438150Y438150D01*
X482600Y225650D02*
X496824D01*
X499774Y228600D01*
X514350D01*
X36650Y437350D02*
X96670Y377330D01*
Y294490D02*
Y377330D01*
Y294490D02*
X111760Y279400D01*
X254000D01*
X22098Y372798D02*
X36650Y387350D01*
X22098Y315468D02*
Y372798D01*
Y315468D02*
X43030Y294536D01*
Y273050D02*
Y294536D01*
X215900Y133350D02*
X234950D01*
X285750Y82550D01*
X482600Y155800D02*
X496570D01*
X499970Y152400D01*
X514350D01*
X482600Y301850D02*
X496824D01*
X499774Y304800D01*
X514350D01*
X482600Y378050D02*
X496824D01*
X499774Y381000D01*
X514350D01*
X425958Y171958D02*
X438150Y184150D01*
X425958Y38354D02*
Y171958D01*
Y38354D02*
X453644Y10668D01*
X535088D01*
X553466Y29046D01*
Y204470D01*
X551786Y206150D02*
X553466Y204470D01*
X482600Y206150D02*
X551786D01*
X463198Y282350D02*
X482600D01*
X425958Y247142D02*
X438150Y234950D01*
X425958Y247142D02*
Y292608D01*
X431800Y298450D01*
X447040D01*
X480060Y331470D01*
Y358550D02*
X482600D01*
X488950Y101600D02*
X517860D01*
X438150Y285750D02*
X462650Y261250D01*
Y102500D02*
Y261250D01*
Y102500D02*
X488950Y76200D01*
X517860D01*
X215900Y57150D02*
X284480D01*
X317500Y90170D01*
Y304800D01*
X285750Y336550D02*
X317500Y304800D01*
D28*
X488950Y50800D02*
D03*
Y76200D02*
D03*
Y101600D02*
D03*
X215900Y57150D02*
D03*
Y82550D02*
D03*
Y133350D02*
D03*
Y184150D02*
D03*
Y158750D02*
D03*
Y107950D02*
D03*
D29*
X488950Y25400D02*
D03*
X215900Y209550D02*
D03*
D30*
X539750Y228600D02*
D03*
Y304800D02*
D03*
Y152400D02*
D03*
Y381000D02*
D03*
D31*
X514350Y228600D02*
D03*
Y304800D02*
D03*
Y152400D02*
D03*
Y381000D02*
D03*
D32*
X527050Y476250D02*
D03*
X57150Y57150D02*
D03*
D33*
X477520Y184912D02*
D03*
X463198Y282350D02*
D03*
M02*
